{"title":"The.Investigator.2013.1080p.WEB-DL.H264.AAC.MP4.Raven","uid":11113496,"size":1587748112,"categoryP":"video","categoryS":"hd___movies","magnet":"?xt=urn:btih:941fa6c3f5fff0a422ee506dc98a5e334ada05f9&amp;dn=The.Investigator.2013.1080p.WEB-DL.H264.AAC.MP4.Raven&amp;tr=udp%3A%2F%2Ftracker.openbittorrent.com%3A80&amp;tr=udp%3A%2F%2Fopen.demonii.com%3A1337&amp;tr=udp%3A%2F%2Ftracker.coppersurfer.tk%3A6969&amp;tr=udp%3A%2F%2Fexodus.desync.com%3A6969","seeders":0,"leechers":0,"uploader":"Raven1969","files":-1,"time":1411834809,"description":"The.Investigator.2013.1080p.WEB-DL.H264.AAC.MP4.Raven.\n\n\n\n\n\nScreen images:\n\n\n &lt;a href=&quot;\nhttp://i.imgur.com/GKTkSUs.png&quot; rel=&quot;nofollow&quot; target=&quot;_NEW&quot;&gt;\nhttp://i.imgur.com/GKTkSUs.png&lt;/a&gt;\n\n\n &lt;a href=&quot;\nhttp://i.imgur.com/ZIXDcbU.png&quot; rel=&quot;nofollow&quot; target=&quot;_NEW&quot;&gt;\nhttp://i.imgur.com/ZIXDcbU.png&lt;/a&gt;\n\n\n &lt;a href=&quot;\nhttp://i.imgur.com/eZXnamk.png&quot; rel=&quot;nofollow&quot; target=&quot;_NEW&quot;&gt;\nhttp://i.imgur.com/eZXnamk.png&lt;/a&gt;\n\n\n &lt;a href=&quot;\nhttp://i.imgur.com/2p10u3S.png&quot; rel=&quot;nofollow&quot; target=&quot;_NEW&quot;&gt;\nhttp://i.imgur.com/2p10u3S.png&lt;/a&gt;\n\n\n\n\n\n\n\nIMDB:\n\n\n\n &lt;a href=&quot;\nhttp://www.imdb.com/title/tt1922748&quot; rel=&quot;nofollow&quot; target=&quot;_NEW&quot;&gt;\nhttp://www.imdb.com/title/tt1922748&lt;/a&gt;\n\n\n\n\nIMDB Rating:  6.7\n\n\n\n\nStoryline:\n\nA veteran police detective becomes a criminal justice teacher and baseball coach at a local high school, leading him to the most important investigation of his life. Inspired by true events.\nTwenty year veteran investigator Sergeant James Buanacore (Wade Williams) starts the most important investigation of his life when a drug bust goes tragically bad. The death of the apparent suspect forces James out of the job he loves and into retirement. When James' wife Stephanie (Nicole Abisinio) has a miscarriage, he is devastated and begins to wonder about and question his previously strong faith. Depressed and angry, James isolates himself until his brother (David Sanborn) encourages him to take a job as a criminal justice teacher and baseball coach at a Christian high school. With his cop mentality challenging his students, James struggles through experiences with an unsupportive principal, a guidance counselor with a secret, and rebellious students. But when his best option seems to be quitting, a student challenges him to begin the investigation that will change his life, and those of his students, forever.\n\n\n\nGeneral\nFormat                                   : MPEG-4\nFormat profile                           : Base Media\nCodec ID                                 : isom\nFile size                                : 1.48 GiB\nDuration                                 : 1h 46mn\nOverall bit rate mode                    : Variable\nOverall bit rate                         : 1 993 Kbps\nEncoded date                             : UTC 2014-09-27 14:02:02\nTagged date                              : UTC 2014-09-27 14:02:02\nWriting application                      : My MP4Box GUI 0.6.0.6 &lt;http://my-mp4box-gui.zymichost.com&gt;\n\nVideo\nID                                       : 1\nFormat                                   : AVC\nFormat/Info                              : Advanced Video Codec\nFormat profile                           : &lt;a class=&quot;__cf_email__&quot; href=&quot;/cdn-cgi/l/email-protection&quot; data-cfemail=&quot;4f072628270f037b617f&quot;&gt;[email&amp;#160;protected]&lt;/a&gt;&lt;script data-cfhash='f9e31' type=&quot;text/javascript&quot;&gt;\n/* &lt;![CDATA[ */!function(){try{var t=&quot;currentScript&quot;in document?document.currentScript:function(){for(var t=document.getElementsByTagName(&quot;script&quot;),e=t.length;e--;)if(t[e].getAttribute(&quot;data-cfhash&quot;))return t[e]}();if(t&amp;&amp;t.previousSibling){var e,r,n,i,c=t.previousSibling,a=c.getAttribute(&quot;data-cfemail&quot;);if(a){for(e=&quot;&quot;,r=parseInt(a.substr(0,2),16),n=2;a.length-n;n+=2)i=parseInt(a.substr(n,2),16)^r,e+=String.fromCharCode(i);e=document.createTextNode(e),c.parentNode.replaceChild(e,c)}t.parentNode.removeChild(t);}}catch(u){}}()/* ]]&gt; */&lt;/script&gt;\nFormat settings, CABAC                   : Yes\nFormat settings, ReFrames                : 6 frames\nCodec ID                                 : avc1\nCodec ID/Info                            : Advanced Video Coding\nDuration                                 : 1h 41mn\nBit rate                                 : 2 000 Kbps\nMaximum bit rate                         : 30.6 Mbps\nWidth                                    : 1 920 pixels\nHeight                                   : 816 pixels\nDisplay aspect ratio                     : 2.35:1\nFrame rate mode                          : Constant\nFrame rate                               : 23.976 fps\nColor space                              : YUV\nChroma subsampling                       : 4:2:0\nBit depth                                : 8 bits\nScan type                                : Progressive\nBits/(Pixel*Frame)                       : 0.053\nStream size                              : 1.41 GiB (95%)\nWriting library                          : x264 core 142\nLanguage                                 : English\nEncoded date                             : UTC 2014-09-27 13:51:20\nTagged date                              : UTC 2014-09-27 14:05:46\n\nAudio\nID                                       : 3\nFormat                                   : AAC\nFormat/Info                              : Advanced Audio Codec\nFormat profile                           : LC\nCodec ID                                 : 40\nDuration                                 : 1h 41mn\nBit rate mode                            : Variable\nBit rate                                 : 93.4 Kbps\nMaximum bit rate                         : 99.3 Kbps\nChannel(s)                               : 2 channels\nChannel positions                        : Front: L R\nSampling rate                            : 48.0 KHz\nCompression mode                         : Lossy\nStream size                              : 67.7 MiB (4%)\nTitle                                    : Audio AAC LC 96kb.aac\nEncoded date                             : UTC 2014-09-27 14:04:52\nTagged date                              : UTC 2014-09-27 14:05:46\n\nMenu\nID                                       : 2\nCodec ID                                 : text\nDuration                                 : 1h 46mn\nTitle                                    : The.Investigator.2013.1080p.WEB-DL.H264.AAC.MP4.Raven.mp4\nEncoded date                             : UTC 2014-09-27 13:53:48\nTagged date                              : UTC 2014-09-27 14:05:46\n\n\n\nPLEASE  SEED FOR AS LONG AS POSSIBLE TO KEEP THE TORRENT ALIVE :-)","torrent":{"xt":"urn:btih:941fa6c3f5fff0a422ee506dc98a5e334ada05f9","amp;dn":"The.Investigator.2013.1080p.WEB-DL.H264.AAC.MP4.Raven","amp;tr":["udp%3A%2F%2Ftracker.openbittorrent.com%3A80","udp%3A%2F%2Fopen.demonii.com%3A1337","udp%3A%2F%2Ftracker.coppersurfer.tk%3A6969","udp%3A%2F%2Fexodus.desync.com%3A6969"],"infoHash":"941fa6c3f5fff0a422ee506dc98a5e334ada05f9","infoHashBuffer":{"type":"Buffer","data":[148,31,166,195,245,255,240,164,34,238,80,109,201,138,94,51,74,218,5,249]},"announce":[],"urlList":[]}}